<svg width="214" height="23" viewBox="0 0 214 23" fill="none" xmlns="http://www.w3.org/2000/svg">
<g clip-path="url(#clip0_302_2)">
<path d="M35.192 17.25C34.6733 17.2926 34.1513 17.2323 33.656 17.0726C33.1608 16.9128 32.7021 16.6568 32.3063 16.3192C31.9693 15.9248 31.7134 15.4678 31.5535 14.9745C31.3936 14.4811 31.3328 13.9611 31.3745 13.4442V9.52578C31.3298 9.0087 31.3893 8.48793 31.5493 7.99416C31.7094 7.50039 31.9668 7.04363 32.3063 6.65078C32.7007 6.31691 33.1575 6.06467 33.6503 5.90874C34.1432 5.75281 34.6621 5.6963 35.177 5.74249H37.2135C37.731 5.70003 38.2518 5.76043 38.7458 5.92019C39.2398 6.07996 39.6973 6.33592 40.0917 6.6733C40.4288 7.06741 40.6841 7.52454 40.8428 8.0181C41.0015 8.51166 41.0604 9.03181 41.016 9.5483V13.4442C41.0587 13.9606 40.999 14.4803 40.8404 14.9736C40.6818 15.467 40.4274 15.9242 40.0917 16.3192C39.6973 16.6566 39.2398 16.9125 38.7458 17.0723C38.2518 17.2321 37.731 17.2925 37.2135 17.25H35.192ZM35.192 15.8238H37.2285C37.7139 15.8419 38.1984 15.768 38.6563 15.6061C38.8275 15.5409 38.9829 15.4403 39.1124 15.311C39.2419 15.1816 39.3426 15.0264 39.4078 14.8554C39.5742 14.3991 39.6483 13.9143 39.6257 13.4292V9.5483C39.6477 9.06565 39.5736 8.58345 39.4078 8.12957C39.3426 7.95863 39.2419 7.8034 39.1124 7.67403C38.9829 7.54467 38.8275 7.4441 38.6563 7.37892C38.2 7.21036 37.7147 7.13382 37.2285 7.15372H35.192C34.7219 7.14465 34.2538 7.21834 33.8093 7.37141C33.6386 7.43742 33.4836 7.53827 33.3542 7.66753C33.2248 7.79679 33.1239 7.9516 33.0578 8.12206C32.889 8.57532 32.8124 9.05762 32.8323 9.5408V13.4592C32.8136 13.9441 32.8876 14.4282 33.0503 14.8854C33.1163 15.0559 33.2173 15.2107 33.3467 15.34C33.4761 15.4692 33.6311 15.5701 33.8017 15.6361C34.2496 15.7837 34.721 15.8474 35.192 15.8238Z" fill="white"/>
<path d="M44.6982 20.6354C44.602 20.649 44.5039 20.6401 44.4116 20.6095C44.3194 20.579 44.2354 20.5275 44.1663 20.4593C44.0972 20.391 44.0449 20.3077 44.0133 20.2158C43.9817 20.124 43.9718 20.0261 43.9843 19.9298V9.36064C44.0338 9.21046 44.1294 9.07969 44.2576 8.98699C44.3858 8.89428 44.54 8.84438 44.6982 8.84438C44.8565 8.84438 45.0107 8.89428 45.1389 8.98699C45.2671 9.07969 45.3627 9.21046 45.4122 9.36064V9.57082C45.7327 9.25709 46.1208 9.02085 46.5469 8.88022C47.0313 8.71932 47.5394 8.64066 48.0499 8.64752H48.6886C49.1425 8.57372 49.6075 8.60877 50.0451 8.74978C50.4828 8.8908 50.8806 9.13373 51.2058 9.45854C51.5309 9.78335 51.7741 10.1807 51.9153 10.6179C52.0565 11.0551 52.0916 11.5195 52.0177 11.9729V13.9246C52.0882 14.3774 52.0507 14.8404 51.9083 15.276C51.7659 15.7116 51.5227 16.1075 51.1983 16.4315C50.8739 16.7555 50.4776 16.9985 50.0415 17.1407C49.6054 17.283 49.1419 17.3204 48.6886 17.25H45.3971V19.9298C45.4092 20.0247 45.3994 20.1211 45.3687 20.2116C45.3379 20.3022 45.287 20.3846 45.2196 20.4526C45.1523 20.5205 45.0704 20.5723 44.98 20.604C44.8897 20.6357 44.7933 20.6464 44.6982 20.6354ZM45.4497 15.8238H48.7412C49.2743 15.8824 49.8102 15.7406 50.2442 15.4259C50.5592 14.9923 50.7012 14.4571 50.6425 13.9246V11.9729C50.7012 11.4404 50.5592 10.9052 50.2442 10.4716C49.8091 10.1596 49.2734 10.0204 48.7412 10.0813H48.0874C47.4664 10.0667 46.8472 10.1529 46.2538 10.3365C45.7353 10.5016 45.5023 10.7719 45.4347 11.1397L45.4497 15.8238Z" fill="white"/>
<path d="M56.0081 13.5343V13.9396C55.9449 14.4724 56.0873 15.0093 56.4064 15.4409C56.8404 15.7556 57.3763 15.8974 57.9093 15.8388H59.2996C59.7344 15.8607 60.1695 15.8047 60.5846 15.6736C60.7141 15.6282 60.8315 15.5539 60.9278 15.4564C61.0242 15.3588 61.097 15.2406 61.1407 15.1106C61.182 14.9264 61.27 14.7558 61.3962 14.6152C61.4643 14.5543 61.544 14.5076 61.6305 14.4779C61.7169 14.4483 61.8085 14.4363 61.8997 14.4426C62.0978 14.4313 62.2923 14.4988 62.4408 14.6302C62.5058 14.7038 62.5509 14.7928 62.5719 14.8887C62.593 14.9845 62.5892 15.0842 62.561 15.1782C62.5169 15.497 62.4048 15.8027 62.2324 16.0747C62.06 16.3466 61.8312 16.5784 61.5615 16.7546C60.8738 17.1357 60.0924 17.3153 59.3071 17.2725H57.9169C57.4652 17.3079 57.0109 17.2538 56.5802 17.1134C56.1495 16.973 55.7508 16.749 55.4069 16.4543C55.112 16.1138 54.8877 15.7181 54.7471 15.2903C54.6065 14.8625 54.5523 14.411 54.5878 13.9621V11.9729C54.55 11.5169 54.6029 11.058 54.7435 10.6225C54.8841 10.1871 55.1096 9.78374 55.4069 9.43571C55.7549 9.15118 56.1559 8.93836 56.5867 8.80952C57.0175 8.68067 57.4696 8.63837 57.9169 8.68505H59.3071C59.7595 8.64725 60.215 8.69944 60.6471 8.83859C61.0792 8.97775 61.4794 9.20111 61.8246 9.49576C62.1199 9.8403 62.3437 10.24 62.4831 10.6717C62.6224 11.1034 62.6744 11.5585 62.6362 12.0104V12.8587C62.6567 12.9583 62.6529 13.0614 62.6249 13.1592C62.597 13.257 62.5457 13.3466 62.4756 13.4204C62.4055 13.4941 62.3185 13.5498 62.2222 13.5827C62.1258 13.6156 62.0229 13.6248 61.9223 13.6093L56.0081 13.5343ZM57.9093 10.0738C57.3775 10.0008 56.8383 10.1382 56.4064 10.4566C56.092 10.8905 55.9501 11.4255 56.0081 11.9579V12.093H61.2084V11.9579C61.2671 11.4254 61.1251 10.8902 60.8101 10.4566C60.375 10.1446 59.8392 10.0054 59.3071 10.0663L57.9093 10.0738Z" fill="white"/>
<path d="M66.2959 17.25C66.1995 17.2625 66.1015 17.2526 66.0096 17.2211C65.9176 17.1895 65.8342 17.1372 65.7659 17.0682C65.6975 16.9992 65.646 16.9153 65.6154 16.8232C65.5848 16.731 65.576 16.633 65.5895 16.5369V9.36064C65.5793 9.26135 65.59 9.16102 65.621 9.06614C65.6521 8.97127 65.7027 8.88395 65.7696 8.80985C65.8366 8.73574 65.9183 8.6765 66.0096 8.63595C66.1009 8.5954 66.1997 8.57445 66.2997 8.57445C66.3996 8.57445 66.4984 8.5954 66.5897 8.63595C66.681 8.6765 66.7628 8.73574 66.8297 8.80985C66.8966 8.88395 66.9473 8.97127 66.9783 9.06614C67.0093 9.16102 67.02 9.26135 67.0098 9.36064V9.63838C67.3551 9.2931 67.7707 9.02595 68.2284 8.855C68.686 8.68405 69.1751 8.6133 69.6625 8.64752H70.136C70.5884 8.61055 71.0436 8.66313 71.4756 8.80225C71.9076 8.94136 72.3079 9.16428 72.6534 9.45822C72.9477 9.80342 73.1709 10.2032 73.3101 10.6348C73.4494 11.0663 73.5021 11.521 73.4651 11.9729V16.5369C73.4156 16.6871 73.32 16.8178 73.1918 16.9105C73.0636 17.0032 72.9094 17.0531 72.7511 17.0531C72.5929 17.0531 72.4387 17.0032 72.3105 16.9105C72.1823 16.8178 72.0866 16.6871 72.0372 16.5369V11.9729C72.0959 11.4404 71.954 10.9052 71.6389 10.4716C71.2032 10.1609 70.668 10.0219 70.136 10.0813H69.6625C69.063 10.0694 68.4651 10.1478 67.889 10.314C67.3856 10.4716 67.0925 10.7118 67.0098 11.0646V16.5594C67.0198 16.6545 67.008 16.7507 66.9754 16.8406C66.9427 16.9305 66.8899 17.0118 66.8212 17.0783C66.7524 17.1448 66.6693 17.1949 66.5783 17.2246C66.4873 17.2544 66.3907 17.263 66.2959 17.25Z" fill="white"/>
<path d="M77.3953 17.25C77.1983 17.2633 77.0039 17.1986 76.8542 17.0698C76.7299 16.9211 76.668 16.7302 76.6814 16.5369V6.47814C76.6728 6.37994 76.6836 6.281 76.7133 6.18697C76.7429 6.09295 76.7908 6.00569 76.8542 5.93016C77.0142 5.8227 77.2026 5.7653 77.3953 5.7653C77.5881 5.7653 77.7764 5.8227 77.9364 5.93016C77.9998 6.00569 78.0477 6.09295 78.0774 6.18697C78.107 6.281 78.1178 6.37994 78.1092 6.47814V16.5369C78.1226 16.7302 78.0607 16.9211 77.9364 17.0698C77.7867 17.1986 77.5924 17.2633 77.3953 17.25Z" fill="white"/>
<path d="M82.1597 17.25C82.06 17.2705 81.9567 17.2667 81.8588 17.2388C81.7609 17.2108 81.6712 17.1597 81.5974 17.0896C81.5236 17.0195 81.4678 16.9327 81.4349 16.8364C81.4019 16.7402 81.3928 16.6374 81.4082 16.5369V9.36064C81.4082 9.17151 81.4834 8.99012 81.6173 8.85639C81.7512 8.72265 81.9328 8.64752 82.1221 8.64752C82.3115 8.64752 82.4931 8.72265 82.6269 8.85639C82.7608 8.99012 82.836 9.17151 82.836 9.36064V9.63838C83.1797 9.29289 83.5939 9.02551 84.0504 8.85451C84.5069 8.68351 84.9949 8.61291 85.4813 8.64752H85.9622C86.4158 8.57543 86.88 8.61168 87.3169 8.7533C87.7538 8.89492 88.1508 9.13789 88.4756 9.4623C88.8004 9.78671 89.0436 10.1833 89.1854 10.6197C89.3272 11.0561 89.3635 11.5198 89.2913 11.9729V16.5369C89.2913 16.726 89.2161 16.9074 89.0822 17.0411C88.9483 17.1749 88.7667 17.25 88.5774 17.25C88.388 17.25 88.2064 17.1749 88.0726 17.0411C87.9387 16.9074 87.8635 16.726 87.8635 16.5369V11.9729C87.9245 11.4391 87.7794 10.9022 87.4577 10.4716C87.0229 10.1589 86.4869 10.0197 85.9547 10.0813H85.4737C84.8742 10.0694 84.2763 10.1478 83.7002 10.314C83.1967 10.4716 82.9037 10.7118 82.8285 11.0646V16.5594C82.8374 16.6504 82.8264 16.7422 82.7963 16.8285C82.7661 16.9148 82.7176 16.9935 82.654 17.0592C82.5903 17.1249 82.5132 17.1759 82.4278 17.2089C82.3425 17.2419 82.251 17.2559 82.1597 17.25Z" fill="white"/>
<path d="M93.5522 17.25C93.4552 17.2638 93.3564 17.2549 93.2635 17.2239C93.1706 17.1929 93.0861 17.1408 93.0169 17.0716C92.9476 17.0024 92.8954 16.9181 92.8644 16.8253C92.8334 16.7325 92.8245 16.6337 92.8383 16.5369V10.0738H92.2146C92.0252 10.0738 91.8436 9.99863 91.7098 9.8649C91.5759 9.73116 91.5007 9.54978 91.5007 9.36064C91.5007 9.17151 91.5759 8.99013 91.7098 8.85639C91.8436 8.72266 92.0252 8.64752 92.2146 8.64752H92.8383V8.57997C92.8017 8.13389 92.8547 7.68502 92.9941 7.25965C93.1334 6.83429 93.3564 6.44099 93.6499 6.10281C93.9878 5.81418 94.3796 5.59525 94.8027 5.45868C95.2257 5.32211 95.6717 5.2706 96.1148 5.30712C96.5281 5.30712 96.731 5.53982 96.731 6.05777C96.731 6.57572 96.5281 6.76338 96.1148 6.76338C95.5982 6.70677 95.0788 6.84314 94.6569 7.14622C94.3355 7.57653 94.1952 8.11532 94.2661 8.64752V8.71508H96.0171C96.2064 8.71508 96.388 8.79021 96.5219 8.92395C96.6558 9.05769 96.731 9.23907 96.731 9.4282C96.731 9.61734 96.6558 9.79872 96.5219 9.93245C96.388 10.0662 96.2064 10.1413 96.0171 10.1413H94.2661V16.6044C94.2691 16.6959 94.2521 16.787 94.2163 16.8712C94.1805 16.9555 94.1268 17.031 94.0588 17.0924C93.9909 17.1538 93.9104 17.1997 93.8229 17.227C93.7354 17.2542 93.643 17.262 93.5522 17.25Z" fill="white"/>
<path d="M99.6167 17.25C99.5197 17.2638 99.4209 17.2548 99.328 17.2239C99.2351 17.1929 99.1506 17.1408 99.0814 17.0716C99.0121 17.0024 98.9599 16.9181 98.9289 16.8253C98.8979 16.7325 98.889 16.6337 98.9028 16.5369V9.36064C98.8657 9.2479 98.8559 9.12797 98.8742 9.01071C98.8924 8.89345 98.9383 8.78219 99.008 8.68606C99.0776 8.58993 99.1691 8.51167 99.275 8.4577C99.3808 8.40373 99.4979 8.3756 99.6167 8.3756C99.7355 8.3756 99.8526 8.40373 99.9584 8.4577C100.064 8.51167 100.156 8.58993 100.225 8.68606C100.295 8.78219 100.341 8.89345 100.359 9.01071C100.378 9.12797 100.368 9.2479 100.331 9.36064V9.99869C100.659 9.54989 101.099 9.19522 101.608 8.9703C102.171 8.73016 102.778 8.61245 103.389 8.625C103.483 8.625 103.576 8.64344 103.662 8.67928C103.749 8.71512 103.828 8.76765 103.894 8.83387C103.96 8.90009 104.013 8.9787 104.049 9.06522C104.085 9.15174 104.103 9.24447 104.103 9.33812C104.103 9.43177 104.085 9.5245 104.049 9.61102C104.013 9.69754 103.96 9.77615 103.894 9.84237C103.828 9.90859 103.749 9.96112 103.662 9.99696C103.576 10.0328 103.483 10.0512 103.389 10.0512C102.6 9.99944 101.814 10.1879 101.135 10.5917C100.895 10.7486 100.696 10.9606 100.554 11.21C100.413 11.4595 100.334 11.7391 100.323 12.0255V16.5294C100.338 16.6261 100.33 16.7249 100.3 16.8181C100.27 16.9112 100.219 16.9961 100.15 17.066C100.082 17.1359 99.9977 17.1889 99.9052 17.2209C99.8126 17.2528 99.7138 17.2628 99.6167 17.25Z" fill="white"/>
<path d="M108.123 17.25C107.74 17.3073 107.347 17.2737 106.979 17.152C106.61 17.0303 106.275 16.8239 106.001 16.5493C105.727 16.2747 105.521 15.9397 105.4 15.5712C105.28 15.2026 105.247 14.8109 105.305 14.4275C105.276 14.0466 105.321 13.6636 105.44 13.3003C105.559 12.9371 105.748 12.6008 105.997 12.3107C106.287 12.0583 106.624 11.8666 106.989 11.7467C107.355 11.6268 107.74 11.5812 108.123 11.6126H111.716C111.729 11.3885 111.694 11.1642 111.613 10.9545C111.533 10.7449 111.409 10.5547 111.25 10.3965C110.82 10.141 110.32 10.028 109.822 10.0738H108.837C108.414 10.0599 107.99 10.0977 107.575 10.1864C107.454 10.211 107.339 10.2605 107.239 10.3315C107.138 10.4026 107.053 10.4937 106.989 10.5992C106.918 10.7817 106.811 10.9477 106.673 11.0871C106.531 11.1873 106.358 11.2351 106.185 11.2223C106.084 11.2288 105.982 11.2149 105.887 11.1814C105.791 11.1479 105.703 11.0954 105.629 11.0271C105.562 10.9578 105.515 10.8714 105.494 10.7774C105.472 10.6834 105.478 10.5854 105.508 10.4941C105.578 10.1988 105.71 9.9213 105.893 9.67956C106.077 9.43782 106.309 9.23714 106.575 9.0904C107.28 8.76243 108.054 8.61044 108.83 8.64752H109.814C110.268 8.57543 110.732 8.61168 111.169 8.7533C111.606 8.89492 112.003 9.13789 112.328 9.4623C112.652 9.78671 112.896 10.1833 113.037 10.6197C113.179 11.0561 113.216 11.5198 113.143 11.9729V16.5369C113.094 16.6871 112.998 16.8178 112.87 16.9105C112.742 17.0032 112.588 17.0531 112.429 17.0531C112.271 17.0531 112.117 17.0032 111.989 16.9105C111.861 16.8178 111.765 16.6871 111.716 16.5369V16.154C111.388 16.527 110.979 16.8199 110.521 17.0099C110.062 17.1999 109.566 17.2821 109.07 17.25H108.123ZM108.123 15.8238H109.078C109.474 15.827 109.87 15.7868 110.258 15.7037C110.601 15.6411 110.925 15.4998 111.205 15.2908C111.475 15.0674 111.658 14.7567 111.723 14.4125V13.0388H108.123C107.729 12.9941 107.332 13.0927 107.004 13.3166C106.774 13.6392 106.667 14.0333 106.703 14.4275C106.656 14.8208 106.752 15.2179 106.974 15.546C107.31 15.7771 107.719 15.876 108.123 15.8238Z" fill="white"/>
<path d="M121.981 17.25C121.881 17.2705 121.778 17.2667 121.68 17.2388C121.582 17.2108 121.492 17.1597 121.419 17.0896C121.345 17.0195 121.289 16.9327 121.256 16.8364C121.223 16.7402 121.214 16.6374 121.229 16.5369V6.45561C121.207 6.35234 121.21 6.24506 121.24 6.14362C121.27 6.04218 121.325 5.94984 121.4 5.8751C121.474 5.80035 121.567 5.7456 121.668 5.71587C121.77 5.68614 121.877 5.68239 121.981 5.70496H128.233C128.332 5.69725 128.431 5.71177 128.523 5.74745C128.616 5.78312 128.699 5.83905 128.767 5.91109C128.834 5.98313 128.885 6.06946 128.915 6.1637C128.945 6.25795 128.953 6.3577 128.94 6.45561C128.955 6.55205 128.947 6.6507 128.917 6.74361C128.887 6.83651 128.835 6.92107 128.767 6.99046C128.698 7.05985 128.614 7.11214 128.521 7.14311C128.429 7.17407 128.33 7.18285 128.233 7.16873H122.695V10.7493H126.106C126.219 10.7123 126.339 10.7025 126.457 10.7208C126.574 10.739 126.686 10.7848 126.782 10.8544C126.878 10.924 126.956 11.0154 127.01 11.1211C127.064 11.2268 127.093 11.3438 127.093 11.4625C127.093 11.5811 127.064 11.6981 127.01 11.8038C126.956 11.9095 126.878 12.0009 126.782 12.0705C126.686 12.1401 126.574 12.1859 126.457 12.2042C126.339 12.2224 126.219 12.2126 126.106 12.1756H122.695V16.5519C122.706 16.6476 122.695 16.7446 122.663 16.8355C122.631 16.9263 122.578 17.0086 122.509 17.076C122.44 17.1435 122.357 17.1942 122.265 17.2243C122.174 17.2545 122.076 17.2633 121.981 17.25Z" fill="white"/>
<path d="M132.254 17.25C131.803 17.286 131.35 17.2322 130.92 17.0918C130.491 16.9513 130.093 16.727 129.751 16.4318C129.455 16.0922 129.23 15.6966 129.089 15.2686C128.948 14.8405 128.895 14.3886 128.932 13.9396V11.9729C128.86 11.5205 128.896 11.0576 129.038 10.6219C129.179 10.1862 129.422 9.79007 129.746 9.46583C130.069 9.1416 130.465 8.89845 130.901 8.75623C131.337 8.61402 131.801 8.57677 132.254 8.64752H133.651C134.105 8.57543 134.569 8.61168 135.006 8.7533C135.443 8.89492 135.84 9.13789 136.165 9.4623C136.49 9.78671 136.733 10.1833 136.875 10.6197C137.016 11.0561 137.053 11.5198 136.98 11.9729V13.9246C137.049 14.3771 137.011 14.8394 136.868 15.2742C136.725 15.7091 136.481 16.1042 136.157 16.4278C135.833 16.7515 135.438 16.9945 135.002 17.1373C134.567 17.2801 134.104 17.3187 133.651 17.25H132.254ZM130.352 13.9396C130.289 14.4724 130.432 15.0093 130.751 15.4409C131.185 15.7556 131.721 15.8974 132.254 15.8388H133.651C134.185 15.8989 134.721 15.7569 135.154 15.4409C135.469 15.0074 135.611 14.4721 135.553 13.9396V11.9879C135.611 11.4554 135.469 10.9202 135.154 10.4866C134.72 10.1739 134.184 10.0347 133.651 10.0963H132.254C131.863 10.0798 131.474 10.1358 131.104 10.2614C130.972 10.3115 130.852 10.3889 130.753 10.4886C130.653 10.5882 130.575 10.7078 130.525 10.8394C130.395 11.2105 130.337 11.6027 130.352 11.9954V13.9396Z" fill="white"/>
<path d="M146.945 8.64752C147.042 8.63373 147.141 8.64267 147.234 8.67363C147.327 8.7046 147.411 8.75673 147.48 8.82591C147.55 8.89509 147.602 8.97942 147.633 9.07223C147.664 9.16504 147.673 9.26378 147.659 9.36064V16.5369C147.659 16.726 147.584 16.9074 147.45 17.0411C147.316 17.1749 147.134 17.25 146.945 17.25C146.756 17.25 146.574 17.1749 146.44 17.0411C146.306 16.9074 146.231 16.726 146.231 16.5369V16.2516C145.888 16.6003 145.473 16.8702 145.015 17.0426C144.557 17.215 144.067 17.2858 143.578 17.25H143.105C142.651 17.3217 142.187 17.2853 141.75 17.1437C141.313 17.002 140.915 16.7592 140.59 16.435C140.265 16.1109 140.021 15.7145 139.878 15.2782C139.735 14.8419 139.698 14.3781 139.768 13.9246V9.36064C139.768 9.17151 139.844 8.99012 139.978 8.85639C140.111 8.72265 140.293 8.64752 140.482 8.64752C140.672 8.64752 140.853 8.72265 140.987 8.85639C141.121 8.99012 141.196 9.17151 141.196 9.36064V13.9246C141.134 14.4585 141.28 14.9957 141.602 15.4259C142.035 15.7426 142.572 15.8846 143.105 15.8238H143.578C144.18 15.8323 144.78 15.754 145.359 15.5911C145.863 15.4334 146.149 15.1857 146.231 14.8404V9.36064C146.217 9.26378 146.226 9.16504 146.257 9.07223C146.288 8.97942 146.341 8.89509 146.41 8.82591C146.479 8.75673 146.563 8.7046 146.656 8.67363C146.749 8.64267 146.848 8.63373 146.945 8.64752Z" fill="white"/>
<path d="M151.732 17.25C151.635 17.2638 151.536 17.2548 151.443 17.2239C151.35 17.1929 151.266 17.1408 151.197 17.0716C151.127 17.0024 151.075 16.9181 151.044 16.8253C151.013 16.7325 151.004 16.6337 151.018 16.5369V9.36064C151.068 9.21046 151.163 9.07969 151.291 8.98699C151.42 8.89429 151.574 8.84438 151.732 8.84438C151.89 8.84438 152.045 8.89429 152.173 8.98699C152.301 9.07969 152.397 9.21046 152.446 9.36064V9.63838C152.791 9.2923 153.206 9.02461 153.664 8.85361C154.122 8.6826 154.611 8.61231 155.099 8.64752H155.55C156.003 8.57543 156.467 8.61168 156.904 8.7533C157.341 8.89492 157.738 9.13789 158.063 9.4623C158.388 9.78671 158.631 10.1833 158.773 10.6197C158.915 11.0561 158.951 11.5198 158.879 11.9729V16.5369C158.829 16.6871 158.734 16.8178 158.605 16.9105C158.477 17.0032 158.323 17.0531 158.165 17.0531C158.007 17.0531 157.852 17.0032 157.724 16.9105C157.596 16.8178 157.5 16.6871 157.451 16.5369V11.9729C157.512 11.4391 157.367 10.9022 157.045 10.4716C156.61 10.1589 156.074 10.0197 155.542 10.0813H155.069C154.467 10.0693 153.866 10.1477 153.288 10.314C152.784 10.4716 152.499 10.7118 152.416 11.0646V16.5594C152.425 16.6517 152.414 16.7449 152.383 16.8324C152.352 16.9198 152.302 16.9994 152.237 17.0653C152.171 17.1313 152.092 17.182 152.005 17.214C151.918 17.2459 151.825 17.2582 151.732 17.25Z" fill="white"/>
<path d="M165.011 17.25C164.558 17.3187 164.095 17.2801 163.66 17.1373C163.224 16.9945 162.829 16.7515 162.505 16.4278C162.181 16.1042 161.938 15.7091 161.795 15.2742C161.652 14.8394 161.613 14.3771 161.682 13.9246V11.9729C161.61 11.5198 161.646 11.0561 161.788 10.6197C161.929 10.1833 162.173 9.78671 162.497 9.4623C162.822 9.13789 163.219 8.89492 163.656 8.7533C164.093 8.61168 164.557 8.57543 165.011 8.64752H168.325V6.02024C168.315 5.92095 168.325 5.82062 168.356 5.72574C168.387 5.63087 168.438 5.54355 168.505 5.46945C168.572 5.39534 168.654 5.3361 168.745 5.29555C168.836 5.255 168.935 5.23405 169.035 5.23405C169.135 5.23405 169.234 5.255 169.325 5.29555C169.416 5.3361 169.498 5.39534 169.565 5.46945C169.632 5.54355 169.683 5.63087 169.714 5.72574C169.745 5.82062 169.755 5.92095 169.745 6.02024V16.5294C169.755 16.6287 169.745 16.729 169.714 16.8239C169.683 16.9187 169.632 17.0061 169.565 17.0802C169.498 17.1543 169.416 17.2135 169.325 17.2541C169.234 17.2946 169.135 17.3156 169.035 17.3156C168.935 17.3156 168.836 17.2946 168.745 17.2541C168.654 17.2135 168.572 17.1543 168.505 17.0802C168.438 17.0061 168.387 16.9187 168.356 16.8239C168.325 16.729 168.315 16.6287 168.325 16.5294V16.4093C168.032 16.6962 167.673 16.9074 167.28 17.0248C166.759 17.181 166.216 17.2544 165.672 17.2425L165.011 17.25ZM165.011 15.8238H165.657C166.298 15.8406 166.937 15.7414 167.543 15.531C168.044 15.3458 168.295 15.0531 168.295 14.6527V10.0738H164.996C164.463 10.0151 163.927 10.1569 163.493 10.4716C163.179 10.9058 163.037 11.4405 163.095 11.9729V13.9246C163.034 14.4583 163.179 14.995 163.5 15.4259C163.936 15.7431 164.475 15.8851 165.011 15.8238Z" fill="white"/>
<path d="M175.577 17.25C175.193 17.281 174.808 17.2352 174.443 17.1153C174.078 16.9955 173.74 16.8039 173.45 16.5519C173.2 16.2607 173.011 15.9231 172.892 15.5586C172.774 15.194 172.728 14.8097 172.759 14.4275C172.7 14.0444 172.732 13.6529 172.853 13.2846C172.974 12.9163 173.18 12.5816 173.454 12.3075C173.729 12.0334 174.064 11.8277 174.432 11.707C174.801 11.5863 175.193 11.5539 175.577 11.6126H179.169C179.179 11.3888 179.142 11.1655 179.062 10.9563C178.982 10.7471 178.86 10.5566 178.703 10.3965C178.273 10.1419 177.773 10.029 177.275 10.0738H176.291C175.864 10.0597 175.438 10.0975 175.021 10.1864C174.9 10.211 174.785 10.2605 174.684 10.3315C174.583 10.4026 174.498 10.4937 174.434 10.5992C174.369 10.7846 174.261 10.9518 174.119 11.0871C173.979 11.1857 173.809 11.2333 173.638 11.2223C173.537 11.2288 173.435 11.2149 173.34 11.1814C173.244 11.1479 173.156 11.0954 173.082 11.0271C173.013 10.9588 172.965 10.8724 172.944 10.778C172.923 10.6837 172.929 10.5852 172.961 10.4941C173.03 10.1982 173.161 9.92019 173.345 9.67827C173.529 9.43635 173.762 9.23601 174.029 9.0904C174.733 8.76157 175.507 8.60953 176.283 8.64752H177.267C177.721 8.57543 178.185 8.61168 178.622 8.7533C179.059 8.89492 179.456 9.13789 179.781 9.4623C180.106 9.78671 180.349 10.1833 180.491 10.6197C180.632 11.0561 180.669 11.5198 180.597 11.9729V16.5369C180.547 16.6871 180.452 16.8178 180.323 16.9105C180.195 17.0032 180.041 17.0531 179.883 17.0531C179.724 17.0531 179.57 17.0032 179.442 16.9105C179.314 16.8178 179.218 16.6871 179.169 16.5369V16.154C178.84 16.5272 178.43 16.82 177.97 17.01C177.51 17.2 177.013 17.2821 176.516 17.25H175.577ZM175.577 15.8238H176.524C176.92 15.8274 177.316 15.7871 177.703 15.7037C178.047 15.6411 178.371 15.4998 178.65 15.2908C178.923 15.0686 179.109 14.7578 179.176 14.4125V13.0388H175.577C175.182 12.9941 174.785 13.0927 174.457 13.3166C174.235 13.6419 174.136 14.036 174.179 14.4275C174.133 14.8217 174.232 15.2192 174.457 15.546C174.785 15.7699 175.182 15.8685 175.577 15.8238Z" fill="white"/>
<path d="M187.428 17.25C186.982 17.2867 186.533 17.2346 186.107 17.0967C185.681 16.9588 185.287 16.7379 184.948 16.4468C184.658 16.1111 184.439 15.7211 184.302 15.2996C184.165 14.8781 184.114 14.4337 184.151 13.9922V10.0738H183.355C183.242 10.1108 183.122 10.1206 183.004 10.1024C182.887 10.0841 182.775 10.0383 182.679 9.96868C182.583 9.89909 182.505 9.8077 182.451 9.702C182.397 9.5963 182.368 9.47932 182.368 9.36064C182.368 9.24197 182.397 9.12498 182.451 9.01928C182.505 8.91359 182.583 8.82219 182.679 8.7526C182.775 8.68301 182.887 8.6372 183.004 8.61893C183.122 8.60067 183.242 8.61047 183.355 8.64752H184.189V7.40894C184.189 7.21981 184.264 7.03843 184.398 6.90469C184.532 6.77096 184.713 6.69582 184.903 6.69582C185.092 6.69582 185.273 6.77096 185.407 6.90469C185.541 7.03843 185.616 7.21981 185.616 7.40894V8.64752H187.57C187.664 8.64752 187.757 8.66597 187.844 8.70181C187.93 8.73764 188.009 8.79017 188.075 8.85639C188.141 8.92261 188.194 9.00122 188.23 9.08774C188.266 9.17426 188.284 9.26699 188.284 9.36064C188.284 9.45429 188.266 9.54702 188.23 9.63354C188.194 9.72006 188.141 9.79867 188.075 9.86489C188.009 9.93111 187.93 9.98364 187.844 10.0195C187.757 10.0553 187.664 10.0738 187.57 10.0738H185.609V13.9922C185.547 14.5074 185.687 15.0268 186 15.4409C186.421 15.746 186.941 15.8826 187.458 15.8238C187.648 15.8102 187.836 15.8693 187.984 15.9889C188.05 16.0633 188.1 16.15 188.133 16.2441C188.165 16.3381 188.178 16.4377 188.172 16.5369C188.187 16.6367 188.177 16.7386 188.145 16.8341C188.112 16.9297 188.057 17.016 187.984 17.0859C187.911 17.1557 187.823 17.2071 187.726 17.2357C187.629 17.2642 187.527 17.2692 187.428 17.25Z" fill="white"/>
<path d="M191.215 7.25881C191.106 7.26792 190.997 7.25321 190.894 7.21569C190.791 7.17817 190.698 7.11875 190.621 7.04157C190.544 6.96439 190.484 6.87131 190.447 6.76881C190.409 6.66632 190.394 6.55687 190.403 6.44811V5.93766C190.389 5.8288 190.401 5.71813 190.437 5.61444C190.473 5.51075 190.533 5.41691 190.611 5.34038C190.69 5.26385 190.786 5.20674 190.891 5.1736C190.995 5.14046 191.106 5.1322 191.215 5.14948H191.703C191.808 5.13923 191.914 5.1529 192.012 5.18947C192.11 5.22603 192.199 5.28452 192.272 5.3605C192.344 5.43647 192.398 5.52793 192.43 5.62794C192.462 5.72795 192.47 5.83387 192.455 5.93766V6.44811C192.455 6.98858 192.199 7.25881 191.703 7.25881H191.215ZM191.456 17.25C191.359 17.2638 191.26 17.2548 191.167 17.2239C191.074 17.1929 190.989 17.1408 190.92 17.0716C190.851 17.0024 190.799 16.9181 190.768 16.8253C190.737 16.7325 190.728 16.6337 190.742 16.5369V9.36064C190.742 9.17151 190.817 8.99012 190.951 8.85639C191.085 8.72265 191.266 8.64752 191.456 8.64752C191.645 8.64752 191.826 8.72265 191.96 8.85639C192.094 8.99012 192.169 9.17151 192.169 9.36064V16.5369C192.183 16.6337 192.174 16.7325 192.143 16.8253C192.112 16.9181 192.06 17.0024 191.991 17.0716C191.922 17.1408 191.837 17.1929 191.744 17.2239C191.651 17.2548 191.552 17.2638 191.456 17.25Z" fill="white"/>
<path d="M198.452 17.25C198 17.2862 197.546 17.2325 197.115 17.0921C196.684 16.9516 196.285 16.7272 195.942 16.4318C195.645 16.0922 195.42 15.6966 195.28 15.2686C195.139 14.8405 195.086 14.3886 195.123 13.9396V11.9729C195.084 11.5203 195.136 11.0645 195.277 10.6326C195.418 10.2006 195.644 9.80126 195.942 9.45822C196.286 9.16416 196.685 8.94111 197.116 8.80195C197.546 8.6628 198.001 8.61031 198.452 8.64752H199.842C200.296 8.57543 200.76 8.61168 201.197 8.7533C201.634 8.89492 202.031 9.13789 202.355 9.4623C202.68 9.78671 202.923 10.1833 203.065 10.6197C203.207 11.0561 203.243 11.5198 203.171 11.9729V13.9246C203.24 14.3771 203.201 14.8394 203.058 15.2742C202.915 15.7091 202.672 16.1042 202.348 16.4278C202.024 16.7515 201.628 16.9945 201.193 17.1373C200.758 17.2801 200.295 17.3187 199.842 17.25H198.452ZM196.551 13.9396C196.483 14.4727 196.626 15.011 196.949 15.4409C197.382 15.7569 197.919 15.8989 198.452 15.8388H199.842C200.375 15.8974 200.911 15.7556 201.345 15.4409C201.657 15.006 201.796 14.4711 201.736 13.9396V11.9879C201.797 11.4564 201.657 10.9212 201.345 10.4866C200.91 10.1746 200.374 10.0355 199.842 10.0963H198.452C198.062 10.0786 197.671 10.1346 197.302 10.2614C197.169 10.3102 197.047 10.3871 196.946 10.4868C196.845 10.5865 196.766 10.7068 196.716 10.8394C196.589 11.2111 196.533 11.6032 196.551 11.9954V13.9396Z" fill="white"/>
<path d="M206.838 17.25C206.741 17.2638 206.643 17.2548 206.55 17.2239C206.457 17.1929 206.372 17.1408 206.303 17.0716C206.234 17.0024 206.182 16.9181 206.151 16.8253C206.12 16.7325 206.111 16.6337 206.124 16.5369V9.36064C206.124 9.17151 206.2 8.99012 206.334 8.85639C206.467 8.72265 206.649 8.64752 206.838 8.64752C207.028 8.64752 207.209 8.72265 207.343 8.85639C207.477 8.99012 207.552 9.17151 207.552 9.36064V9.63838C207.896 9.29289 208.31 9.02551 208.767 8.85451C209.223 8.68351 209.711 8.61291 210.198 8.64752H210.678C211.132 8.57543 211.596 8.61168 212.033 8.7533C212.47 8.89492 212.867 9.13789 213.192 9.4623C213.517 9.78671 213.76 10.1833 213.902 10.6197C214.043 11.0561 214.08 11.5198 214.008 11.9729V16.5369C213.958 16.6871 213.863 16.8178 213.734 16.9105C213.606 17.0032 213.452 17.0531 213.294 17.0531C213.135 17.0531 212.981 17.0032 212.853 16.9105C212.725 16.8178 212.629 16.6871 212.58 16.5369V11.9729C212.641 11.4391 212.496 10.9022 212.174 10.4716C211.739 10.1589 211.203 10.0197 210.671 10.0813H210.19C209.59 10.0694 208.993 10.1478 208.417 10.314C207.913 10.4716 207.62 10.7118 207.545 11.0646V16.5594C207.555 16.6538 207.543 16.7492 207.511 16.8385C207.478 16.9277 207.426 17.0086 207.358 17.075C207.291 17.1414 207.208 17.1916 207.118 17.2219C207.028 17.2522 206.933 17.2618 206.838 17.25Z" fill="white"/>
<path d="M0 3.83584V5.75H13.2036L0 18.939L1.36019 20.2901L17.8327 3.83584H0Z" fill="#F7B749"/>
<path d="M19.749 1.91416L21.6728 0H0V1.91416H19.749Z" fill="#ED362F"/>
<path d="M21.1092 3.27284V23H23.0255V1.35117L21.1092 3.27284Z" fill="#43B85C"/>
<path d="M19.1929 23V5.18701L2.71286 21.6488L4.07305 23L17.2691 9.81854V23H19.1929Z" fill="#2CB4E2"/>
</g>
<defs>
<clipPath id="clip0_302_2">
<rect width="214" height="23" fill="white"/>
</clipPath>
</defs>
</svg>
